<?xml version="1.0" encoding="utf-8" standalone="no"?>
<!DOCTYPE svg PUBLIC "-//W3C//DTD SVG 1.1//EN"
  "http://www.w3.org/Graphics/SVG/1.1/DTD/svg11.dtd">
<svg xmlns:xlink="http://www.w3.org/1999/xlink" width="475.2pt" height="360pt" viewBox="0 0 475.2 360" xmlns="http://www.w3.org/2000/svg" version="1.1" xmlns:c2pa="http://c2pa.org/manifest">
 <metadata><c2pa:manifest>AAAWgmp1bWIAAAAeanVtZGMycGEAEQAQgAAAqgA4m3EDYzJwYQAAABZcanVtYgAAAEdqdW1kYzJtYQARABCAAACqADibcQN1cm46YzJwYTpiNWU2MjQ3MC1lNWQ4LTQxYjMtOTEwOS02MzBlMWM0MzA4NGQAAAADl2p1bWIAAAApanVtZGMyYXMAEQAQgAAAqgA4m3EDYzJwYS5hc3NlcnRpb25zAAAAALxqdW1iAAAARGp1bWRjYm9yABEAEIAAAKoAOJtxE2MycGEuaW5ncmVkaWVudC52MwAAAAAYYzJzaFb/u61XTiXaRK1q2m1dYQYAAABwY2JvcqNpZGM6Zm9ybWF0bWltYWdlL3N2Zyt4bWxqaW5zdGFuY2VJRHgseG1wOmlpZDo5ZjU1NWNmNi05MzZkLTRkNzYtOTdlNC05NWEzZDMwN2JiOGNscmVsYXRpb25zaGlwaHBhcmVudE9mAAAB4mp1bWIAAABBanVtZGNib3IAEQAQgAAAqgA4m3ETYzJwYS5hY3Rpb25zLnYyAAAAABhjMnNocpyWHD2jdTudu093tj0fsgAAAZljYm9yomdhY3Rpb25zgqJmYWN0aW9ua2MycGEub3BlbmVkanBhcmFtZXRlcnOha2luZ3JlZGllbnRzgaJjdXJseC1zZWxmI2p1bWJmPWMycGEuYXNzZXJ0aW9ucy9jMnBhLmluZ3JlZGllbnQudjNkaGFzaFggN4GOjauDexGz2cuUTE7lYiriGC+CIP7uaS7wwAQ4fqCkZmFjdGlvbngdY29tLmFudGhyb3BpYy5jbGF1ZGUucHJvdmlkZWRqcGFyYW1ldGVyc6F4H2NvbS5hbnRocm9waWMub3JpZ2luLWNvbmZpZGVuY2VndW5rbm93bmtkZXNjcmlwdGlvbnhmQ2xhdWRlIHByb3ZpZGVkIHRoaXMgZmlsZSBhdCB0aGUgcmVxdWVzdCBvZiBhIHVzZXIgYW5kIG1heSBoYXZlIGNyZWF0ZWQgb3IgbW9kaWZpZWQgdGhlIGZpbGUgY29udGVudHMubXNvZnR3YXJlQWdlbnShZG5hbWVmQ2xhdWRlcmFsbEFjdGlvbnNJbmNsdWRlZPUAAADIanVtYgAAAEBqdW1kY2JvcgARABCAAACqADibcRNjMnBhLmhhc2guZGF0YQAAAAAYYzJzaB110yFPTYfwWfGVdxPGzPoAAACAY2JvcqVjYWxnZnNoYTI1NmNwYWRMAAAAAAAAAAAAAAAAZGhhc2hYIKqcnNGNlqUL3sIeGu4ku0vvaLk1x68HvksO2LBqZjn7ZG5hbWVuanVtYmYgbWFuaWZlc3RqZXhjbHVzaW9uc4GiZXN0YXJ0GQF1Zmxlbmd0aBkeBAAAAj5qdW1iAAAAJ2p1bWRjMmNsABEAEIAAAKoAOJtxA2MycGEuY2xhaW0udjIAAAACD2Nib3KlY2FsZ2ZzaGEyNTZpc2lnbmF0dXJleE1zZWxmI2p1bWJmPS9jMnBhL3VybjpjMnBhOmI1ZTYyNDcwLWU1ZDgtNDFiMy05MTA5LTYzMGUxYzQzMDg0ZC9jMnBhLnNpZ25hdHVyZWppbnN0YW5jZUlEeCx4bXA6aWlkOmM5MGQ0ZmQ0LWQ0OTYtNGIxMy04NzEwLTA2NzA1NTA2MDg5M3JjcmVhdGVkX2Fzc2VydGlvbnODomN1cmx4LXNlbGYjanVtYmY9YzJwYS5hc3NlcnRpb25zL2MycGEuaW5ncmVkaWVudC52M2RoYXNoWCA3gY6Nq4N7EbPZy5RMTuViKuIYL4Ig/u5pLvDABDh+oKJjdXJseCpzZWxmI2p1bWJmPWMycGEuYXNzZXJ0aW9ucy9jMnBhLmFjdGlvbnMudjJkaGFzaFggzP/Rgg3m+Vg/AL7yjPqg3js4+Duf3r8J2WKl0Mqcgv+iY3VybHgpc2VsZiNqdW1iZj1jMnBhLmFzc2VydGlvbnMvYzJwYS5oYXNoLmRhdGFkaGFzaFggNOyRq4VAk56f8WTcbQmd8A5oYMod3GWqfb0g62H0tS10Y2xhaW1fZ2VuZXJhdG9yX2luZm+jZG5hbWVvQW50aHJvcGljIEZpbGVzZ3ZlcnNpb25lMS4wLjBrc3BlY1ZlcnNpb25lMi40LjAAABA4anVtYgAAAChqdW1kYzJjcwARABCAAACqADibcQNjMnBhLnNpZ25hdHVyZQAAABAIY2JvctKEWQISogEmGCFZAgowggIGMIIBjaADAgECAhRA5aAK7sI50L64g/oGQgU9Z1UTADAKBggqhkjOPQQDAzBJMRcwFQYDVQQKEw5BbnRocm9waWMsIFBCQzEuMCwGA1UEAxMlQW50aHJvcGljIENvbnRlbnQgQ3JlZGVudGlhbHMgUm9vdCBDQTAeFw0yNjA4MDcxODQzNTZaFw0yODA4MDYxOTQzNTZaMEQxFzAVBgNVBAoTDkFudGhyb3BpYywgUEJDMSkwJwYDVQQDEyBBbnRocm9waWMgQ2xhdWRlIENvbnRlbnQgU2lnbmluZzBZMBMGByqGSM49AgEGCCqGSM49AwEHA0IABJh6CmvLUBgFFNU0vUKlOVtE6djd17L5SuwX0LemFisBM3dkd/3cyjxFA3Qo5S46fX0/ihY0VZ7mfb9KF703t5OjWDBWMA4GA1UdDwEB/wQEAwIHgDAVBgNVHSUEDjAMBgorBgEEAYPoXgIBMAwGA1UdEwEB/wQCMAAwHwYDVR0jBBgwFoAUzlHiBIFOZFsj+OPEz5o+nMHXXMIwCgYIKoZIzj0EAwMDZwAwZAIwMXMdFJ4BetLLVY7ORuE9noqbbAZOZn/aArXyTwFAZfKrPzxF2vPoJNf1+UCdg1XGAjBwX1zd9WGqYkqmL5SFqw1QySjr1zJfpJM9+1rdDwSPLMOPOjKuiXjoU/pUUeG9RwmhY3BhZFkNngAAAAAAAAAAAAAAAAAAAAAAAAAAAAAAAAAAAAAAAAAAAAAAAAAAAAAAAAAAAAAAAAAAAAAAAAAAAAAAAAAAAAAAAAAAAAAAAAAAAAAAAAAAAAAAAAAAAAAAAAAAAAAAAAAAAAAAAAAAAAAAAAAAAAAAAAAAAAAAAAAAAAAAAAAAAAAAAAAAAAAAAAAAAAAAAAAAAAAAAAAAAAAAAAAAAAAAAAAAAAAAAAAAAAAAAAAAAAAAAAAAAAAAAAAAAAAAAAAAAAAAAAAAAAAAAAAAAAAAAAAAAAAAAAAAAAAAAAAAAAAAAAAAAAAAAAAAAAAAAAAAAAAAAAAAAAAAAAAAAAAAAAAAAAAAAAAAAAAAAAAAAAAAAAAAAAAAAAAAAAAAAAAAAAAAAAAAAAAAAAAAAAAAAAAAAAAAAAAAAAAAAAAAAAAAAAAAAAAAAAAAAAAAAAAAAAAAAAAAAAAAAAAAAAAAAAAAAAAAAAAAAAAAAAAAAAAAAAAAAAAAAAAAAAAAAAAAAAAAAAAAAAAAAAAAAAAAAAAAAAAAAAAAAAAAAAAAAAAAAAAAAAAAAAAAAAAAAAAAAAAAAAAAAAAAAAAAAAAAAAAAAAAAAAAAAAAAAAAAAAAAAAAAAAAAAAAAAAAAAAAAAAAAAAAAAAAAAAAAAAAAAAAAAAAAAAAAAAAAAAAAAAAAAAAAAAAAAAAAAAAAAAAAAAAAAAAAAAAAAAAAAAAAAAAAAAAAAAAAAAAAAAAAAAAAAAAAAAAAAAAAAAAAAAAAAAAAAAAAAAAAAAAAAAAAAAAAAAAAAAAAAAAAAAAAAAAAAAAAAAAAAAAAAAAAAAAAAAAAAAAAAAAAAAAAAAAAAAAAAAAAAAAAAAAAAAAAAAAAAAAAAAAAAAAAAAAAAAAAAAAAAAAAAAAAAAAAAAAAAAAAAAAAAAAAAAAAAAAAAAAAAAAAAAAAAAAAAAAAAAAAAAAAAAAAAAAAAAAAAAAAAAAAAAAAAAAAAAAAAAAAAAAAAAAAAAAAAAAAAAAAAAAAAAAAAAAAAAAAAAAAAAAAAAAAAAAAAAAAAAAAAAAAAAAAAAAAAAAAAAAAAAAAAAAAAAAAAAAAAAAAAAAAAAAAAAAAAAAAAAAAAAAAAAAAAAAAAAAAAAAAAAAAAAAAAAAAAAAAAAAAAAAAAAAAAAAAAAAAAAAAAAAAAAAAAAAAAAAAAAAAAAAAAAAAAAAAAAAAAAAAAAAAAAAAAAAAAAAAAAAAAAAAAAAAAAAAAAAAAAAAAAAAAAAAAAAAAAAAAAAAAAAAAAAAAAAAAAAAAAAAAAAAAAAAAAAAAAAAAAAAAAAAAAAAAAAAAAAAAAAAAAAAAAAAAAAAAAAAAAAAAAAAAAAAAAAAAAAAAAAAAAAAAAAAAAAAAAAAAAAAAAAAAAAAAAAAAAAAAAAAAAAAAAAAAAAAAAAAAAAAAAAAAAAAAAAAAAAAAAAAAAAAAAAAAAAAAAAAAAAAAAAAAAAAAAAAAAAAAAAAAAAAAAAAAAAAAAAAAAAAAAAAAAAAAAAAAAAAAAAAAAAAAAAAAAAAAAAAAAAAAAAAAAAAAAAAAAAAAAAAAAAAAAAAAAAAAAAAAAAAAAAAAAAAAAAAAAAAAAAAAAAAAAAAAAAAAAAAAAAAAAAAAAAAAAAAAAAAAAAAAAAAAAAAAAAAAAAAAAAAAAAAAAAAAAAAAAAAAAAAAAAAAAAAAAAAAAAAAAAAAAAAAAAAAAAAAAAAAAAAAAAAAAAAAAAAAAAAAAAAAAAAAAAAAAAAAAAAAAAAAAAAAAAAAAAAAAAAAAAAAAAAAAAAAAAAAAAAAAAAAAAAAAAAAAAAAAAAAAAAAAAAAAAAAAAAAAAAAAAAAAAAAAAAAAAAAAAAAAAAAAAAAAAAAAAAAAAAAAAAAAAAAAAAAAAAAAAAAAAAAAAAAAAAAAAAAAAAAAAAAAAAAAAAAAAAAAAAAAAAAAAAAAAAAAAAAAAAAAAAAAAAAAAAAAAAAAAAAAAAAAAAAAAAAAAAAAAAAAAAAAAAAAAAAAAAAAAAAAAAAAAAAAAAAAAAAAAAAAAAAAAAAAAAAAAAAAAAAAAAAAAAAAAAAAAAAAAAAAAAAAAAAAAAAAAAAAAAAAAAAAAAAAAAAAAAAAAAAAAAAAAAAAAAAAAAAAAAAAAAAAAAAAAAAAAAAAAAAAAAAAAAAAAAAAAAAAAAAAAAAAAAAAAAAAAAAAAAAAAAAAAAAAAAAAAAAAAAAAAAAAAAAAAAAAAAAAAAAAAAAAAAAAAAAAAAAAAAAAAAAAAAAAAAAAAAAAAAAAAAAAAAAAAAAAAAAAAAAAAAAAAAAAAAAAAAAAAAAAAAAAAAAAAAAAAAAAAAAAAAAAAAAAAAAAAAAAAAAAAAAAAAAAAAAAAAAAAAAAAAAAAAAAAAAAAAAAAAAAAAAAAAAAAAAAAAAAAAAAAAAAAAAAAAAAAAAAAAAAAAAAAAAAAAAAAAAAAAAAAAAAAAAAAAAAAAAAAAAAAAAAAAAAAAAAAAAAAAAAAAAAAAAAAAAAAAAAAAAAAAAAAAAAAAAAAAAAAAAAAAAAAAAAAAAAAAAAAAAAAAAAAAAAAAAAAAAAAAAAAAAAAAAAAAAAAAAAAAAAAAAAAAAAAAAAAAAAAAAAAAAAAAAAAAAAAAAAAAAAAAAAAAAAAAAAAAAAAAAAAAAAAAAAAAAAAAAAAAAAAAAAAAAAAAAAAAAAAAAAAAAAAAAAAAAAAAAAAAAAAAAAAAAAAAAAAAAAAAAAAAAAAAAAAAAAAAAAAAAAAAAAAAAAAAAAAAAAAAAAAAAAAAAAAAAAAAAAAAAAAAAAAAAAAAAAAAAAAAAAAAAAAAAAAAAAAAAAAAAAAAAAAAAAAAAAAAAAAAAAAAAAAAAAAAAAAAAAAAAAAAAAAAAAAAAAAAAAAAAAAAAAAAAAAAAAAAAAAAAAAAAAAAAAAAAAAAAAAAAAAAAAAAAAAAAAAAAAAAAAAAAAAAAAAAAAAAAAAAAAAAAAAAAAAAAAAAAAAAAAAAAAAAAAAAAAAAAAAAAAAAAAAAAAAAAAAAAAAAAAAAAAAAAAAAAAAAAAAAAAAAAAAAAAAAAAAAAAAAAAAAAAAAAAAAAAAAAAAAAAAAAAAAAAAAAAAAAAAAAAAAAAAAAAAAAAAAAAAAAAAAAAAAAAAAAAAAAAAAAAAAAAAAAAAAAAAAAAAAAAAAAAAAAAAAAAAAAAAAAAAAAAAAAAAAAAAAAAAAAAAAAAAAAAAAAAAAAAAAAAAAAAAAAAAAAAAAAAAAAAAAAAAAAAAAAAAAAAAAAAAAAAAAAAAAAAAAAAAAAAAAAAAAAAAAAAAAAAAAAAAAAAAAAAAAAAAAAAAAAAAAAAAAAAAAAAAAAAAAAAAAAAAAAAAAAAAAAAAAAAAAAAAAAAAAAAAAAAAAAAAAAAAAAAAAAAAAAAAAAAAAAAAAAAAAAAAAAAAAAAAAAAAAAAAAAAAAAAAAAAAAAAAAAAAAAAAAAAAAAAAAAAAAAAAAAAAAAAAAAAAAAAAAAAAAAAAAAAAAAAAAAAAAAAAAAAAAAAAAAAAAAAAAAAAAAAAAAAAAAAAAAAAAAAAAAAAAAAAAAAAAAAAAAAAAAAAAAAAAAAAAAAAAAAAAAAAAAAAAAAAAAAAAAAAAAAAAAAAAAAAAAAAAAAAAAAAAAAAAAAAAAAAAAAAAAAAAAAAAAAAAAAAAAAAAAAAAAAAAAAAAAAAAAAAAAAAAAAAAAAAAAAAAAAAAAAAAAAAAAAAAAAAAAAAAAAAAAAAAAAAAAAAAAAAAAAAAAAAAAAAAAAAAAAAAAAAAAAAAAAAAAAAAAAAAAAAAAAAAAAAAAAAAAAAAAAAAAAAAAAAAAAAAAAAAAAAAAAAAAAAAAAAAAAAAAAAAAAAAAAAAAAAAAAAAAAAAAAAAAAAAAAAAAAAAAAAAAAAAAAAAAAAAAAAAAAAAAAAAAAAAAAAAAAAAAAAAAAAAAAAAAAAAAAAAAAAAAAAAAAAAAAAAAAAAAAAAAAAAAAAAAAAAAAAAAAAAAAAAAAAAAAAAAAAAAAAAAAAAAAAAAAAAAAAAAAAAAAAAAAAAAAAAAAAAAAAAAAAAAAAAAAAAAAAAAAAAAAAAAAAAAAAAAAAAAAAAAAAAAAAAAAAAAAAAAAAAAAAAAAAAAAAAAAAAAAAAAAAAAAAAAAAAAAAAAAAAAAAAAAAAAAAAAAAAAAAAAAAAAAAAAAAAAAAAAAAAAAAAAAAAAAAAAAAAAAAAAAAAAAAAAAAAAAAAAAAAAAAAAAAAAAAAAAAAAAAAAAAAAAAAAAAAAAAAAAAAAAAAAAAAAAAAAAAAAAAAAAAAAAAAAAAAAAAAAAAAAAAAAAAAAAAAAAAAAAAAAAAAAAAAAAAAAAAAAAAAAAAAAAAAAAAAAAAAAAAAAAAAAAAAAAAAAAAAAAAAAAAAAAAAAAAAAAAAAAAAAAAAAAAAAAAAAAAAAAAAAAAAAAAAAAAAAAAAAAAAAAAAAAAAAAAAAAAAAAAAAAAAAAAAAAAAAAAAAAAAAAAAAAAAAAAAAAAAAAAAAAAAAAAAAAAAAAAAAAAAAAAAAAAAAAAAAAAAAAAAAAAAAAAAAAAAAAAAAAAAAAAAAAAAAAAAAAAAAAAAAAAAAAAAAAAAAPZYQK6PhByyAmCKpJmXoYSp0F/gs3RLODpoGAEIn0Gx4i2XZhYyfY0ICe4/DR+6va0OgtHt3R4aVCgKAPtBsfQA5Ow=</c2pa:manifest>
  <rdf:RDF xmlns:dc="http://purl.org/dc/elements/1.1/" xmlns:cc="http://creativecommons.org/ns#" xmlns:rdf="http://www.w3.org/1999/02/22-rdf-syntax-ns#">
   <cc:Work>
    <dc:type rdf:resource="http://purl.org/dc/dcmitype/StillImage"/>
    <dc:date>2026-10-05T23:43:52.198290</dc:date>
    <dc:format>image/svg+xml</dc:format>
    <dc:creator>
     <cc:Agent>
      <dc:title>Matplotlib v3.11.2, https://matplotlib.org/</dc:title>
     </cc:Agent>
    </dc:creator>
   </cc:Work>
  </rdf:RDF>
 </metadata>
 <defs>
  <style type="text/css">*{stroke-linejoin: round; stroke-linecap: butt}</style>
 </defs>
 <g id="figure_1">
  <g id="patch_1">
   <path d="M 0 360 
L 475.2 360 
L 475.2 0 
L 0 0 
L 0 360 
z
" style="fill: none; opacity: 0"/>
  </g>
  <g id="axes_1">
   <g id="patch_2">
    <path d="M 36.79625 313.541016 
L 459.6125 313.541016 
L 459.6125 25.5 
L 36.79625 25.5 
L 36.79625 313.541016 
z
" style="fill: none; opacity: 0"/>
   </g>
   <g id="matplotlib.axis_1">
    <g id="xtick_1">
     <g id="line2d_1">
      <defs>
       <path id="m1c26394991" d="M 0 0 
L 0 3.5 
" style="stroke: currentColor; stroke-width: 0.8"/>
      </defs>
      <g>
       <use xlink:href="#m1c26394991" x="36.79625" y="313.541016" style="fill: currentColor; stroke: currentColor; stroke-width: 0.8"/>
      </g>
     </g>
     <g id="text_1">
      <!-- −1.00 -->
      <g style="fill: currentColor" transform="translate(21.238438 332.166016) scale(0.12 -0.12)">
       <defs>
        <path id="Inter-Regular-602" d="M 3584 2600 
L 656 2600 
L 656 2063 
L 3584 2063 
L 3584 2600 
z
" transform="scale(0.015625)"/>
        <path id="Inter-Regular-540" d="M 2041 4656 
L 1313 4656 
L 300 3909 
L 300 3272 
L 1425 4106 
L 1456 4106 
L 1456 0 
L 2041 0 
L 2041 4656 
z
" transform="scale(0.015625)"/>
        <path id="Inter-Regular-5e0" d="M 922 -41 
C 1156 -41 1344 147 1344 381 
C 1344 616 1156 803 922 803 
C 688 803 500 616 500 381 
C 500 147 688 -41 922 -41 
z
" transform="scale(0.015625)"/>
        <path id="Inter-Regular-53f" d="M 2019 -63 
C 3059 -63 3656 809 3656 2325 
C 3656 3834 3050 4719 2019 4719 
C 988 4719 381 3834 381 2325 
C 381 806 981 -63 2019 -63 
z
M 2019 456 
C 1338 456 953 1144 953 2325 
C 953 3509 1338 4203 2019 4203 
C 2700 4203 3084 3513 3084 2325 
C 3084 1144 2700 456 2019 456 
z
" transform="scale(0.015625)"/>
       </defs>
       <use xlink:href="#Inter-Regular-602"/>
       <use xlink:href="#Inter-Regular-540" transform="translate(66.15625 0)"/>
       <use xlink:href="#Inter-Regular-5e0" transform="translate(106.828125 0)"/>
       <use xlink:href="#Inter-Regular-53f" transform="translate(133.109375 0)"/>
       <use xlink:href="#Inter-Regular-53f" transform="translate(196.203125 0)"/>
      </g>
     </g>
    </g>
    <g id="xtick_2">
     <g id="line2d_2">
      <g>
       <use xlink:href="#m1c26394991" x="89.648281" y="313.541016" style="fill: currentColor; stroke: currentColor; stroke-width: 0.8"/>
      </g>
     </g>
     <g id="text_2">
      <!-- −0.75 -->
      <g style="fill: currentColor" transform="translate(73.416406 332.166016) scale(0.12 -0.12)">
       <defs>
        <path id="Inter-Regular-548" d="M 625 0 
L 1250 0 
L 3316 4103 
L 3316 4656 
L 306 4656 
L 306 4134 
L 2694 4134 
L 2694 4097 
L 625 0 
z
" transform="scale(0.015625)"/>
        <path id="Inter-Regular-545" d="M 1956 -63 
C 2853 -63 3509 594 3509 1488 
C 3509 2388 2881 3047 2028 3047 
C 1706 3047 1397 2934 1206 2775 
L 1181 2775 
L 1341 4134 
L 3291 4134 
L 3291 4656 
L 841 4656 
L 566 2350 
L 1122 2281 
C 1306 2422 1631 2525 1919 2525 
C 2503 2525 2928 2078 2928 1478 
C 2928 888 2519 459 1956 459 
C 1488 459 1106 759 1069 1175 
L 494 1175 
C 525 463 1138 -63 1956 -63 
z
" transform="scale(0.015625)"/>
       </defs>
       <use xlink:href="#Inter-Regular-602"/>
       <use xlink:href="#Inter-Regular-53f" transform="translate(66.15625 0)"/>
       <use xlink:href="#Inter-Regular-5e0" transform="translate(126.71875 0)"/>
       <use xlink:href="#Inter-Regular-548" transform="translate(154.109375 0)"/>
       <use xlink:href="#Inter-Regular-545" transform="translate(209.734375 0)"/>
      </g>
     </g>
    </g>
    <g id="xtick_3">
     <g id="line2d_3">
      <g>
       <use xlink:href="#m1c26394991" x="142.500313" y="313.541016" style="fill: currentColor; stroke: currentColor; stroke-width: 0.8"/>
      </g>
     </g>
     <g id="text_3">
      <!-- −0.50 -->
      <g style="fill: currentColor" transform="translate(125.820312 332.166016) scale(0.12 -0.12)">
       <use xlink:href="#Inter-Regular-602"/>
       <use xlink:href="#Inter-Regular-53f" transform="translate(66.15625 0)"/>
       <use xlink:href="#Inter-Regular-5e0" transform="translate(126.71875 0)"/>
       <use xlink:href="#Inter-Regular-545" transform="translate(154.109375 0)"/>
       <use xlink:href="#Inter-Regular-53f" transform="translate(214.90625 0)"/>
      </g>
     </g>
    </g>
    <g id="xtick_4">
     <g id="line2d_4">
      <g>
       <use xlink:href="#m1c26394991" x="195.352344" y="313.541016" style="fill: currentColor; stroke: currentColor; stroke-width: 0.8"/>
      </g>
     </g>
     <g id="text_4">
      <!-- −0.25 -->
      <g style="fill: currentColor" transform="translate(178.713594 332.166016) scale(0.12 -0.12)">
       <defs>
        <path id="Inter-Regular-541" d="M 481 0 
L 3447 0 
L 3447 522 
L 1300 522 
L 1300 559 
L 2319 1644 
C 3141 2519 3369 2916 3369 3419 
C 3369 4147 2778 4719 1947 4719 
C 1119 4719 494 4159 494 3334 
L 1063 3334 
C 1063 3859 1400 4203 1931 4203 
C 2428 4203 2806 3900 2806 3413 
C 2806 2984 2544 2666 2028 2106 
L 481 428 
L 481 0 
z
" transform="scale(0.015625)"/>
       </defs>
       <use xlink:href="#Inter-Regular-602"/>
       <use xlink:href="#Inter-Regular-53f" transform="translate(66.15625 0)"/>
       <use xlink:href="#Inter-Regular-5e0" transform="translate(126.71875 0)"/>
       <use xlink:href="#Inter-Regular-541" transform="translate(155.53125 0)"/>
       <use xlink:href="#Inter-Regular-545" transform="translate(216.515625 0)"/>
      </g>
     </g>
    </g>
    <g id="xtick_5">
     <g id="line2d_5">
      <g>
       <use xlink:href="#m1c26394991" x="248.204375" y="313.541016" style="fill: currentColor; stroke: currentColor; stroke-width: 0.8"/>
      </g>
     </g>
     <g id="text_5">
      <!-- 0.00 -->
      <g style="fill: currentColor" transform="translate(235.4225 332.166016) scale(0.12 -0.12)">
       <use xlink:href="#Inter-Regular-53f"/>
       <use xlink:href="#Inter-Regular-5e0" transform="translate(60.5625 0)"/>
       <use xlink:href="#Inter-Regular-53f" transform="translate(86.84375 0)"/>
       <use xlink:href="#Inter-Regular-53f" transform="translate(149.9375 0)"/>
      </g>
     </g>
    </g>
    <g id="xtick_6">
     <g id="line2d_6">
      <g>
       <use xlink:href="#m1c26394991" x="301.056406" y="313.541016" style="fill: currentColor; stroke: currentColor; stroke-width: 0.8"/>
      </g>
     </g>
     <g id="text_6">
      <!-- 0.25 -->
      <g style="fill: currentColor" transform="translate(288.387031 332.166016) scale(0.12 -0.12)">
       <use xlink:href="#Inter-Regular-53f"/>
       <use xlink:href="#Inter-Regular-5e0" transform="translate(60.5625 0)"/>
       <use xlink:href="#Inter-Regular-541" transform="translate(89.375 0)"/>
       <use xlink:href="#Inter-Regular-545" transform="translate(150.359375 0)"/>
      </g>
     </g>
    </g>
    <g id="xtick_7">
     <g id="line2d_7">
      <g>
       <use xlink:href="#m1c26394991" x="353.908437" y="313.541016" style="fill: currentColor; stroke: currentColor; stroke-width: 0.8"/>
      </g>
     </g>
     <g id="text_7">
      <!-- 0.50 -->
      <g style="fill: currentColor" transform="translate(341.197812 332.166016) scale(0.12 -0.12)">
       <use xlink:href="#Inter-Regular-53f"/>
       <use xlink:href="#Inter-Regular-5e0" transform="translate(60.5625 0)"/>
       <use xlink:href="#Inter-Regular-545" transform="translate(87.953125 0)"/>
       <use xlink:href="#Inter-Regular-53f" transform="translate(148.75 0)"/>
      </g>
     </g>
    </g>
    <g id="xtick_8">
     <g id="line2d_8">
      <g>
       <use xlink:href="#m1c26394991" x="406.760469" y="313.541016" style="fill: currentColor; stroke: currentColor; stroke-width: 0.8"/>
      </g>
     </g>
     <g id="text_8">
      <!-- 0.75 -->
      <g style="fill: currentColor" transform="translate(394.497969 332.166016) scale(0.12 -0.12)">
       <use xlink:href="#Inter-Regular-53f"/>
       <use xlink:href="#Inter-Regular-5e0" transform="translate(60.5625 0)"/>
       <use xlink:href="#Inter-Regular-548" transform="translate(87.953125 0)"/>
       <use xlink:href="#Inter-Regular-545" transform="translate(143.578125 0)"/>
      </g>
     </g>
    </g>
    <g id="xtick_9">
     <g id="line2d_9">
      <g>
       <use xlink:href="#m1c26394991" x="459.6125" y="313.541016" style="fill: currentColor; stroke: currentColor; stroke-width: 0.8"/>
      </g>
     </g>
     <g id="text_9">
      <!-- 1.00 -->
      <g style="fill: currentColor" transform="translate(448.024062 332.166016) scale(0.12 -0.12)">
       <use xlink:href="#Inter-Regular-540"/>
       <use xlink:href="#Inter-Regular-5e0" transform="translate(40.671875 0)"/>
       <use xlink:href="#Inter-Regular-53f" transform="translate(66.953125 0)"/>
       <use xlink:href="#Inter-Regular-53f" transform="translate(130.046875 0)"/>
      </g>
     </g>
    </g>
    <g id="text_10">
     <!-- $u$ -->
     <g style="fill: currentColor" transform="translate(243.724375 352.623047) scale(0.14 -0.14)">
      <defs>
       <path id="DejaVuSans-Oblique-58" d="M 428 1388 
L 838 3500 
L 1416 3500 
L 1006 1409 
Q 975 1256 961 1147 
Q 947 1038 947 966 
Q 947 700 1109 554 
Q 1272 409 1569 409 
Q 2031 409 2368 721 
Q 2706 1034 2809 1563 
L 3194 3500 
L 3769 3500 
L 3091 0 
L 2516 0 
L 2631 550 
Q 2388 244 2052 76 
Q 1716 -91 1338 -91 
Q 878 -91 622 161 
Q 366 413 366 863 
Q 366 956 381 1097 
Q 397 1238 428 1388 
z
" transform="scale(0.015625)"/>
      </defs>
      <use xlink:href="#DejaVuSans-Oblique-58" transform="translate(0 0.3125)"/>
     </g>
    </g>
   </g>
   <g id="matplotlib.axis_2">
    <g id="ytick_1">
     <g id="line2d_10">
      <defs>
       <path id="m48098046b4" d="M 0 0 
L -3.5 0 
" style="stroke: currentColor; stroke-width: 0.8"/>
      </defs>
      <g>
       <use xlink:href="#m48098046b4" x="36.79625" y="294.755732" style="fill: currentColor; stroke: currentColor; stroke-width: 0.8"/>
      </g>
     </g>
     <g id="text_11">
      <!-- −1.0 -->
      <g style="fill: currentColor" transform="translate(6.251875 300.568232) scale(0.12 -0.12)">
       <use xlink:href="#Inter-Regular-602"/>
       <use xlink:href="#Inter-Regular-540" transform="translate(66.15625 0)"/>
       <use xlink:href="#Inter-Regular-5e0" transform="translate(106.828125 0)"/>
       <use xlink:href="#Inter-Regular-53f" transform="translate(133.109375 0)"/>
      </g>
     </g>
    </g>
    <g id="ytick_2">
     <g id="line2d_11">
      <g>
       <use xlink:href="#m48098046b4" x="36.79625" y="232.13812" style="fill: currentColor; stroke: currentColor; stroke-width: 0.8"/>
      </g>
     </g>
     <g id="text_12">
      <!-- −0.5 -->
      <g style="fill: currentColor" transform="translate(4.0075 237.95062) scale(0.12 -0.12)">
       <use xlink:href="#Inter-Regular-602"/>
       <use xlink:href="#Inter-Regular-53f" transform="translate(66.15625 0)"/>
       <use xlink:href="#Inter-Regular-5e0" transform="translate(126.71875 0)"/>
       <use xlink:href="#Inter-Regular-545" transform="translate(154.109375 0)"/>
      </g>
     </g>
    </g>
    <g id="ytick_3">
     <g id="line2d_12">
      <g>
       <use xlink:href="#m48098046b4" x="36.79625" y="169.520508" style="fill: currentColor; stroke: currentColor; stroke-width: 0.8"/>
      </g>
     </g>
     <g id="text_13">
      <!-- 0.0 -->
      <g style="fill: currentColor" transform="translate(11.80375 175.333008) scale(0.12 -0.12)">
       <use xlink:href="#Inter-Regular-53f"/>
       <use xlink:href="#Inter-Regular-5e0" transform="translate(60.5625 0)"/>
       <use xlink:href="#Inter-Regular-53f" transform="translate(86.84375 0)"/>
      </g>
     </g>
    </g>
    <g id="ytick_4">
     <g id="line2d_13">
      <g>
       <use xlink:href="#m48098046b4" x="36.79625" y="106.902896" style="fill: currentColor; stroke: currentColor; stroke-width: 0.8"/>
      </g>
     </g>
     <g id="text_14">
      <!-- 0.5 -->
      <g style="fill: currentColor" transform="translate(11.94625 112.715396) scale(0.12 -0.12)">
       <use xlink:href="#Inter-Regular-53f"/>
       <use xlink:href="#Inter-Regular-5e0" transform="translate(60.5625 0)"/>
       <use xlink:href="#Inter-Regular-545" transform="translate(87.953125 0)"/>
      </g>
     </g>
    </g>
    <g id="ytick_5">
     <g id="line2d_14">
      <g>
       <use xlink:href="#m48098046b4" x="36.79625" y="44.285284" style="fill: currentColor; stroke: currentColor; stroke-width: 0.8"/>
      </g>
     </g>
     <g id="text_15">
      <!-- 1.0 -->
      <g style="fill: currentColor" transform="translate(14.190625 50.097784) scale(0.12 -0.12)">
       <use xlink:href="#Inter-Regular-540"/>
       <use xlink:href="#Inter-Regular-5e0" transform="translate(40.671875 0)"/>
       <use xlink:href="#Inter-Regular-53f" transform="translate(66.953125 0)"/>
      </g>
     </g>
    </g>
   </g>
   <g id="line2d_15">
    <path d="M 36.79625 44.285284 
L 459.6125 44.285284 
L 459.6125 44.285284 
" clip-path="url(#p5c4a38902a)" style="fill: none; stroke: #4c78a8; stroke-width: 2.4; stroke-linecap: square"/>
   </g>
   <g id="line2d_16">
    <path d="M 36.79625 294.755732 
L 459.6125 44.285284 
L 459.6125 44.285284 
" clip-path="url(#p5c4a38902a)" style="fill: none; stroke: #f58518; stroke-width: 2.4; stroke-linecap: square"/>
   </g>
   <g id="line2d_17">
    <path d="M 36.79625 44.285284 
L 44.214079 61.553791 
L 51.631908 78.205566 
L 59.049737 94.240609 
L 65.407876 107.494062 
L 71.766015 120.294406 
L 78.124154 132.641641 
L 84.482293 144.535766 
L 90.840432 155.976781 
L 97.198571 166.964687 
L 103.556711 177.499483 
L 109.91485 187.58117 
L 116.272989 197.209748 
L 122.631128 206.385215 
L 128.989267 215.107574 
L 134.287716 222.03008 
L 139.586165 228.637928 
L 144.884615 234.931115 
L 150.183064 240.909644 
L 155.481513 246.573513 
L 160.779962 251.922722 
L 166.078412 256.957273 
L 171.376861 261.677164 
L 176.67531 266.082395 
L 181.973759 270.172967 
L 187.272209 273.94888 
L 192.570658 277.410133 
L 197.869107 280.556727 
L 203.167556 283.388662 
L 207.406316 285.427654 
L 211.645075 287.265265 
L 215.883835 288.901494 
L 220.122594 290.336341 
L 224.361353 291.569806 
L 228.600113 292.601888 
L 232.838872 293.432589 
L 237.077632 294.061908 
L 241.316391 294.489845 
L 245.55515 294.7164 
L 249.79391 294.741572 
L 254.032669 294.565363 
L 258.271429 294.187772 
L 262.510188 293.608799 
L 266.748947 292.828443 
L 270.987707 291.846706 
L 275.226466 290.663587 
L 279.465226 289.279085 
L 283.703985 287.693202 
L 287.942744 285.905937 
L 292.181504 283.917289 
L 296.420263 281.72726 
L 301.718712 278.70653 
L 307.017162 275.37114 
L 312.315611 271.721091 
L 317.61406 267.756383 
L 322.912509 263.477015 
L 328.210959 258.882988 
L 333.509408 253.974302 
L 338.807857 248.750956 
L 344.106306 243.21295 
L 349.404756 237.360286 
L 354.703205 231.192962 
L 360.001654 224.710978 
L 365.300103 217.914335 
L 370.598553 210.803033 
L 376.956692 201.85412 
L 383.314831 192.452098 
L 389.67297 182.596965 
L 396.031109 172.288724 
L 402.389248 161.527373 
L 408.747387 150.312912 
L 415.105526 138.645342 
L 421.463665 126.524662 
L 427.821805 113.950873 
L 434.179944 100.923974 
L 440.538083 87.443966 
L 447.955912 71.144609 
L 455.373741 54.22852 
L 459.6125 44.285284 
L 459.6125 44.285284 
" clip-path="url(#p5c4a38902a)" style="fill: none; stroke: #54a24b; stroke-width: 2.4; stroke-linecap: square"/>
   </g>
   <g id="line2d_18">
    <path d="M 36.79625 294.755732 
L 41.035009 272.757003 
L 45.273769 251.942339 
L 49.512528 232.287515 
L 53.751288 213.768304 
L 57.990047 196.360479 
L 62.228806 180.039814 
L 66.467566 164.782082 
L 70.706325 150.563058 
L 73.885395 140.565868 
L 77.064464 131.129103 
L 80.243534 122.242542 
L 83.422603 113.895965 
L 86.601673 106.079152 
L 89.780742 98.781881 
L 92.959812 91.993933 
L 96.138882 85.705086 
L 99.317951 79.905121 
L 102.497021 74.583817 
L 105.67609 69.730953 
L 108.85516 65.336308 
L 112.034229 61.389663 
L 115.213299 57.880797 
L 118.392368 54.799489 
L 121.571438 52.135519 
L 124.750508 49.878666 
L 127.929577 48.018709 
L 130.048957 46.994189 
L 132.168336 46.138497 
L 134.287716 45.448605 
L 136.407096 44.921483 
L 138.526476 44.554104 
L 140.645855 44.34344 
L 142.765235 44.286463 
L 144.884615 44.380143 
L 148.063684 44.796522 
L 151.242754 45.534848 
L 154.421823 46.5849 
L 157.600893 47.936456 
L 160.779962 49.579298 
L 163.959032 51.503203 
L 167.138102 53.697953 
L 170.317171 56.153325 
L 173.496241 58.8591 
L 176.67531 61.805057 
L 180.91407 66.088952 
L 185.152829 70.75744 
L 189.391588 75.786297 
L 193.630348 81.151294 
L 197.869107 86.828207 
L 203.167556 94.326071 
L 208.466006 102.226132 
L 214.824145 112.17048 
L 221.182284 122.544091 
L 228.600113 135.080093 
L 238.137321 151.683853 
L 270.987707 209.383083 
L 278.405536 221.732278 
L 284.763675 231.901478 
L 290.062124 240.020143 
L 295.360573 247.765003 
L 300.659023 255.08874 
L 304.897782 260.612724 
L 309.136541 265.812679 
L 313.375301 270.66438 
L 317.61406 275.1436 
L 321.85282 279.226112 
L 325.031889 282.013083 
L 328.210959 284.553059 
L 331.390028 286.835818 
L 334.569098 288.851141 
L 337.748167 290.588806 
L 340.927237 292.038593 
L 344.106306 293.190282 
L 347.285376 294.033652 
L 350.464445 294.558482 
L 353.643515 294.754553 
L 355.762895 294.697575 
L 357.882274 294.486911 
L 360.001654 294.119533 
L 362.121034 293.592411 
L 364.240414 292.902518 
L 366.359793 292.046826 
L 368.479173 291.022306 
L 370.598553 289.82593 
L 372.717932 288.45467 
L 375.897002 286.063247 
L 379.076071 283.261299 
L 382.255141 280.038608 
L 385.434211 276.384951 
L 388.61328 272.290108 
L 391.79235 267.74386 
L 394.971419 262.735985 
L 398.150489 257.256262 
L 401.329558 251.294472 
L 404.508628 244.840394 
L 407.687697 237.883807 
L 410.866767 230.414491 
L 414.045836 222.422226 
L 417.224906 213.89679 
L 420.403976 204.827963 
L 423.583045 195.205525 
L 426.762115 185.019255 
L 429.941184 174.258933 
L 434.179944 159.001202 
L 438.418703 142.680537 
L 442.657462 125.272712 
L 446.896222 106.753501 
L 451.134981 87.098676 
L 455.373741 66.284013 
L 459.6125 44.285284 
L 459.6125 44.285284 
" clip-path="url(#p5c4a38902a)" style="fill: none; stroke: #b279a2; stroke-width: 2.4; stroke-linecap: square"/>
   </g>
   <g id="line2d_19">
    <path d="M 36.79625 44.285284 
L 39.97532 73.297869 
L 43.154389 100.125954 
L 46.333459 124.849458 
L 49.512528 147.547071 
L 52.691598 168.296255 
L 55.870667 187.17324 
L 59.049737 204.253028 
L 62.228806 219.609391 
L 64.348186 228.925382 
L 66.467566 237.528863 
L 68.586945 245.440783 
L 70.706325 252.681846 
L 72.825705 259.272513 
L 74.945085 265.233004 
L 77.064464 270.583294 
L 79.183844 275.343118 
L 81.303224 279.531966 
L 83.422603 283.169085 
L 85.541983 286.273479 
L 87.661363 288.863911 
L 89.780742 290.9589 
L 91.900122 292.576721 
L 94.019502 293.735409 
L 96.138882 294.452752 
L 98.258261 294.746299 
L 100.377641 294.633354 
L 102.497021 294.130979 
L 104.6164 293.255993 
L 106.73578 292.024971 
L 108.85516 290.454247 
L 110.974539 288.559911 
L 113.093919 286.35781 
L 115.213299 283.863549 
L 117.332679 281.09249 
L 120.511748 276.449909 
L 123.690818 271.268493 
L 126.869887 265.597013 
L 130.048957 259.483011 
L 134.287716 250.72251 
L 138.526476 241.363873 
L 142.765235 231.509592 
L 148.063684 218.644589 
L 155.481513 199.939507 
L 177.735 143.236572 
L 184.093139 127.950277 
L 189.391588 115.822745 
L 193.630348 106.600596 
L 197.869107 97.861575 
L 202.107867 89.653768 
L 206.346626 82.021379 
L 209.525695 76.699104 
L 212.704765 71.738833 
L 215.883835 67.154912 
L 219.062904 62.960454 
L 222.241974 59.167346 
L 225.421043 55.786243 
L 228.600113 52.826572 
L 231.779182 50.29653 
L 233.898562 48.85201 
L 236.017942 47.603318 
L 238.137321 46.551973 
L 240.256701 45.69925 
L 242.376081 45.046181 
L 244.495461 44.593555 
L 246.61484 44.341919 
L 248.73422 44.291577 
L 250.8536 44.442589 
L 252.972979 44.794772 
L 255.092359 45.347703 
L 257.211739 46.100713 
L 259.331118 47.052892 
L 261.450498 48.203085 
L 263.569878 49.549896 
L 265.689258 51.091686 
L 267.808637 52.826572 
L 270.987707 55.786243 
L 274.166776 59.167346 
L 277.345846 62.960454 
L 280.524915 67.154912 
L 283.703985 71.738833 
L 286.883055 76.699104 
L 290.062124 82.021379 
L 293.241194 87.690084 
L 297.479953 95.758028 
L 301.718712 104.368603 
L 305.957472 113.474691 
L 311.255921 125.476045 
L 316.55437 138.063509 
L 322.912509 153.775822 
L 331.390028 175.388807 
L 346.225686 213.36635 
L 352.583825 228.980218 
L 357.882274 241.363873 
L 362.121034 250.72251 
L 366.359793 259.483011 
L 369.538863 265.597013 
L 372.717932 271.268493 
L 375.897002 276.449909 
L 379.076071 281.09249 
L 381.195451 283.863549 
L 383.314831 286.35781 
L 385.434211 288.559911 
L 387.55359 290.454247 
L 389.67297 292.024971 
L 391.79235 293.255993 
L 393.911729 294.130979 
L 396.031109 294.633354 
L 398.150489 294.746299 
L 400.269868 294.452752 
L 402.389248 293.735409 
L 404.508628 292.576721 
L 406.628008 290.9589 
L 408.747387 288.863911 
L 410.866767 286.273479 
L 412.986147 283.169085 
L 415.105526 279.531966 
L 417.224906 275.343118 
L 419.344286 270.583294 
L 421.463665 265.233004 
L 423.583045 259.272513 
L 425.702425 252.681846 
L 427.821805 245.440783 
L 429.941184 237.528863 
L 432.060564 228.925382 
L 434.179944 219.609391 
L 436.299323 209.559699 
L 438.418703 198.754874 
L 441.597773 181.084278 
L 444.776842 161.591622 
L 447.955912 140.201492 
L 451.134981 116.83725 
L 454.314051 91.421023 
L 457.49312 63.873712 
L 459.6125 44.285284 
L 459.6125 44.285284 
" clip-path="url(#p5c4a38902a)" style="fill: none; stroke: #e45756; stroke-width: 2.4; stroke-linecap: square"/>
   </g>
   <g id="line2d_20">
    <path d="M 36.79625 169.520508 
L 459.6125 169.520508 
" clip-path="url(#p5c4a38902a)" style="fill: none; stroke: currentColor; stroke-opacity: 0.4; stroke-width: 0.7; stroke-linecap: square"/>
   </g>
   <g id="line2d_21">
    <path d="M 248.204375 313.541016 
L 248.204375 25.5 
" clip-path="url(#p5c4a38902a)" style="fill: none; stroke: currentColor; stroke-opacity: 0.4; stroke-width: 0.7; stroke-linecap: square"/>
   </g>
   <g id="patch_3">
    <path d="M 36.79625 313.541016 
L 36.79625 25.5 
" style="fill: none; opacity: 0.5; stroke: currentColor; stroke-width: 0.8; stroke-linejoin: miter; stroke-linecap: square"/>
   </g>
   <g id="patch_4">
    <path d="M 459.6125 313.541016 
L 459.6125 25.5 
" style="fill: none; opacity: 0.5; stroke: currentColor; stroke-width: 0.8; stroke-linejoin: miter; stroke-linecap: square"/>
   </g>
   <g id="patch_5">
    <path d="M 36.79625 313.541016 
L 459.6125 313.541016 
" style="fill: none; opacity: 0.5; stroke: currentColor; stroke-width: 0.8; stroke-linejoin: miter; stroke-linecap: square"/>
   </g>
   <g id="patch_6">
    <path d="M 36.79625 25.5 
L 459.6125 25.5 
" style="fill: none; opacity: 0.5; stroke: currentColor; stroke-width: 0.8; stroke-linejoin: miter; stroke-linecap: square"/>
   </g>
   <g id="text_16">
    <!-- Chebyshev -->
    <g style="fill: currentColor" transform="translate(205.771875 19.5) scale(0.16 -0.16)">
     <defs>
      <path id="Inter-Regular-49" d="M 2447 -63 
C 3400 -63 4163 519 4325 1466 
L 3731 1466 
C 3600 831 3056 488 2447 488 
C 1613 488 959 1134 959 2325 
C 959 3519 1609 4169 2447 4169 
C 3053 4169 3600 3828 3731 3191 
L 4325 3191 
C 4159 4150 3391 4719 2447 4719 
C 1253 4719 381 3803 381 2325 
C 381 850 1253 -63 2447 -63 
z
" transform="scale(0.015625)"/>
      <path id="Inter-Regular-29f" d="M 1056 2094 
C 1056 2691 1434 3031 1938 3031 
C 2425 3031 2725 2709 2725 2172 
L 2725 0 
L 3291 0 
L 3291 2219 
C 3291 3103 2813 3538 2106 3538 
C 1650 3538 1284 3353 1056 2888 
L 1056 4656 
L 494 4656 
L 494 0 
L 1056 0 
L 1056 2094 
z
" transform="scale(0.015625)"/>
      <path id="Inter-Regular-267" d="M 1963 -75 
C 2678 -75 3200 284 3363 813 
L 2819 963 
C 2688 606 2378 425 1966 425 
C 1347 425 922 825 894 1556 
L 3419 1556 
L 3419 1791 
C 3419 3081 2638 3538 1897 3538 
C 944 3538 325 2791 325 1719 
C 325 644 950 -75 1963 -75 
z
M 897 2031 
C 931 2566 1297 3038 1897 3038 
C 2472 3038 2794 2625 2847 2031 
L 897 2031 
z
" transform="scale(0.015625)"/>
      <path id="Inter-Regular-243" d="M 2116 -75 
C 2988 -75 3594 625 3594 1738 
C 3594 2844 2984 3538 2113 3538 
C 1431 3538 1216 3119 1100 2934 
L 1056 2934 
L 1056 4656 
L 494 4656 
L 494 0 
L 1038 0 
L 1038 541 
L 1100 541 
C 1216 347 1450 -75 2116 -75 
z
M 2031 428 
C 1397 428 1050 966 1050 1744 
C 1050 2516 1388 3034 2031 3034 
C 2694 3034 3022 2469 3022 1744 
C 3022 1009 2684 428 2031 428 
z
" transform="scale(0.015625)"/>
      <path id="Inter-Regular-3e8" d="M 438 -1266 
C 497 -1294 650 -1331 850 -1331 
C 1344 -1331 1681 -1078 1894 -522 
L 3428 3494 
L 2816 3494 
L 2066 1422 
C 1956 1119 1875 816 1797 525 
C 1716 816 1638 1116 1528 1422 
L 784 3494 
L 169 3494 
L 1503 -19 
L 1403 -309 
C 1231 -809 984 -884 641 -794 
L 581 -778 
L 438 -1266 
z
" transform="scale(0.015625)"/>
      <path id="Inter-Regular-369" d="M 1681 -75 
C 2500 -75 3059 372 3059 984 
C 3059 1463 2763 1778 2128 1928 
L 1600 2053 
C 1191 2150 1013 2294 1013 2553 
C 1013 2844 1325 3059 1741 3059 
C 2191 3059 2388 2816 2484 2566 
L 2994 2697 
C 2834 3188 2456 3538 1738 3538 
C 994 3538 444 3119 444 2519 
C 444 2028 747 1716 1381 1566 
L 1963 1428 
C 2306 1347 2475 1188 2475 947 
C 2475 659 2163 419 1675 419 
C 1256 419 972 591 872 975 
L 338 847 
C 463 244 963 -75 1681 -75 
z
" transform="scale(0.015625)"/>
      <path id="Inter-Regular-3d6" d="M 1503 0 
L 2094 0 
L 3428 3494 
L 2813 3494 
L 2069 1422 
C 1959 1119 1878 813 1800 522 
C 1719 813 1638 1119 1528 1422 
L 784 3494 
L 169 3494 
L 1503 0 
z
" transform="scale(0.015625)"/>
     </defs>
     <use xlink:href="#Inter-Regular-49"/>
     <use xlink:href="#Inter-Regular-29f" transform="translate(73.046875 0)"/>
     <use xlink:href="#Inter-Regular-267" transform="translate(132.171875 0)"/>
     <use xlink:href="#Inter-Regular-243" transform="translate(190.46875 0)"/>
     <use xlink:href="#Inter-Regular-3e8" transform="translate(249.75 0)"/>
     <use xlink:href="#Inter-Regular-369" transform="translate(305.953125 0)"/>
     <use xlink:href="#Inter-Regular-29f" transform="translate(358.734375 0)"/>
     <use xlink:href="#Inter-Regular-267" transform="translate(417.859375 0)"/>
     <use xlink:href="#Inter-Regular-3d6" transform="translate(474.203125 0)"/>
    </g>
   </g>
   <g id="legend_1">
    <g id="patch_7">
     <path d="M 404.5325 307.541016 
L 451.2125 307.541016 
Q 453.6125 307.541016 453.6125 305.141016 
L 453.6125 203.743359 
Q 453.6125 201.343359 451.2125 201.343359 
L 404.5325 201.343359 
Q 402.1325 201.343359 402.1325 203.743359 
L 402.1325 305.141016 
Q 402.1325 307.541016 404.5325 307.541016 
L 404.5325 307.541016 
z
" style="fill: none; opacity: 0"/>
    </g>
    <g id="line2d_22">
     <path d="M 406.9325 213.568359 
L 416.5325 213.568359 
L 426.1325 213.568359 
" style="fill: none; stroke: #4c78a8; stroke-width: 2.4; stroke-linecap: square"/>
    </g>
    <g id="text_17">
     <!-- $T_0$ -->
     <g style="fill: currentColor" transform="translate(435.7325 217.768359) scale(0.12 -0.12)">
      <defs>
       <path id="DejaVuSans-Oblique-37" d="M 378 4666 
L 4325 4666 
L 4225 4134 
L 2559 4134 
L 1759 0 
L 1125 0 
L 1925 4134 
L 275 4134 
L 378 4666 
z
" transform="scale(0.015625)"/>
       <path id="DejaVuSans-13" d="M 2034 4250 
Q 1547 4250 1301 3770 
Q 1056 3291 1056 2328 
Q 1056 1369 1301 889 
Q 1547 409 2034 409 
Q 2525 409 2770 889 
Q 3016 1369 3016 2328 
Q 3016 3291 2770 3770 
Q 2525 4250 2034 4250 
z
M 2034 4750 
Q 2819 4750 3233 4129 
Q 3647 3509 3647 2328 
Q 3647 1150 3233 529 
Q 2819 -91 2034 -91 
Q 1250 -91 836 529 
Q 422 1150 422 2328 
Q 422 3509 836 4129 
Q 1250 4750 2034 4750 
z
" transform="scale(0.015625)"/>
      </defs>
      <use xlink:href="#DejaVuSans-Oblique-37" transform="translate(0 0.09375)"/>
      <use xlink:href="#DejaVuSans-13" transform="translate(61.083984 -14.906201) scale(0.7)"/>
     </g>
    </g>
    <g id="line2d_23">
     <path d="M 406.9325 234.087891 
L 416.5325 234.087891 
L 426.1325 234.087891 
" style="fill: none; stroke: #f58518; stroke-width: 2.4; stroke-linecap: square"/>
    </g>
    <g id="text_18">
     <!-- $T_1$ -->
     <g style="fill: currentColor" transform="translate(435.7325 238.287891) scale(0.12 -0.12)">
      <defs>
       <path id="DejaVuSans-14" d="M 794 531 
L 1825 531 
L 1825 4091 
L 703 3866 
L 703 4441 
L 1819 4666 
L 2450 4666 
L 2450 531 
L 3481 531 
L 3481 0 
L 794 0 
L 794 531 
z
" transform="scale(0.015625)"/>
      </defs>
      <use xlink:href="#DejaVuSans-Oblique-37" transform="translate(0 0.09375)"/>
      <use xlink:href="#DejaVuSans-14" transform="translate(61.083984 -14.906201) scale(0.7)"/>
     </g>
    </g>
    <g id="line2d_24">
     <path d="M 406.9325 254.607422 
L 416.5325 254.607422 
L 426.1325 254.607422 
" style="fill: none; stroke: #54a24b; stroke-width: 2.4; stroke-linecap: square"/>
    </g>
    <g id="text_19">
     <!-- $T_2$ -->
     <g style="fill: currentColor" transform="translate(435.7325 258.807422) scale(0.12 -0.12)">
      <defs>
       <path id="DejaVuSans-15" d="M 1228 531 
L 3431 531 
L 3431 0 
L 469 0 
L 469 531 
Q 828 903 1448 1529 
Q 2069 2156 2228 2338 
Q 2531 2678 2651 2914 
Q 2772 3150 2772 3378 
Q 2772 3750 2511 3984 
Q 2250 4219 1831 4219 
Q 1534 4219 1204 4116 
Q 875 4013 500 3803 
L 500 4441 
Q 881 4594 1212 4672 
Q 1544 4750 1819 4750 
Q 2544 4750 2975 4387 
Q 3406 4025 3406 3419 
Q 3406 3131 3298 2873 
Q 3191 2616 2906 2266 
Q 2828 2175 2409 1742 
Q 1991 1309 1228 531 
z
" transform="scale(0.015625)"/>
      </defs>
      <use xlink:href="#DejaVuSans-Oblique-37" transform="translate(0 0.09375)"/>
      <use xlink:href="#DejaVuSans-15" transform="translate(61.083984 -14.906201) scale(0.7)"/>
     </g>
    </g>
    <g id="line2d_25">
     <path d="M 406.9325 275.126953 
L 416.5325 275.126953 
L 426.1325 275.126953 
" style="fill: none; stroke: #b279a2; stroke-width: 2.4; stroke-linecap: square"/>
    </g>
    <g id="text_20">
     <!-- $T_3$ -->
     <g style="fill: currentColor" transform="translate(435.7325 279.326953) scale(0.12 -0.12)">
      <defs>
       <path id="DejaVuSans-16" d="M 2597 2516 
Q 3050 2419 3304 2112 
Q 3559 1806 3559 1356 
Q 3559 666 3084 287 
Q 2609 -91 1734 -91 
Q 1441 -91 1130 -33 
Q 819 25 488 141 
L 488 750 
Q 750 597 1062 519 
Q 1375 441 1716 441 
Q 2309 441 2620 675 
Q 2931 909 2931 1356 
Q 2931 1769 2642 2001 
Q 2353 2234 1838 2234 
L 1294 2234 
L 1294 2753 
L 1863 2753 
Q 2328 2753 2575 2939 
Q 2822 3125 2822 3475 
Q 2822 3834 2567 4026 
Q 2313 4219 1838 4219 
Q 1578 4219 1281 4162 
Q 984 4106 628 3988 
L 628 4550 
Q 988 4650 1302 4700 
Q 1616 4750 1894 4750 
Q 2613 4750 3031 4423 
Q 3450 4097 3450 3541 
Q 3450 3153 3228 2886 
Q 3006 2619 2597 2516 
z
" transform="scale(0.015625)"/>
      </defs>
      <use xlink:href="#DejaVuSans-Oblique-37" transform="translate(0 0.09375)"/>
      <use xlink:href="#DejaVuSans-16" transform="translate(61.083984 -14.906201) scale(0.7)"/>
     </g>
    </g>
    <g id="line2d_26">
     <path d="M 406.9325 295.646484 
L 416.5325 295.646484 
L 426.1325 295.646484 
" style="fill: none; stroke: #e45756; stroke-width: 2.4; stroke-linecap: square"/>
    </g>
    <g id="text_21">
     <!-- $T_4$ -->
     <g style="fill: currentColor" transform="translate(435.7325 299.846484) scale(0.12 -0.12)">
      <defs>
       <path id="DejaVuSans-17" d="M 2419 4116 
L 825 1625 
L 2419 1625 
L 2419 4116 
z
M 2253 4666 
L 3047 4666 
L 3047 1625 
L 3713 1625 
L 3713 1100 
L 3047 1100 
L 3047 0 
L 2419 0 
L 2419 1100 
L 313 1100 
L 313 1709 
L 2253 4666 
z
" transform="scale(0.015625)"/>
      </defs>
      <use xlink:href="#DejaVuSans-Oblique-37" transform="translate(0 0.09375)"/>
      <use xlink:href="#DejaVuSans-17" transform="translate(61.083984 -14.906201) scale(0.7)"/>
     </g>
    </g>
   </g>
  </g>
 </g>
 <defs>
  <clipPath id="p5c4a38902a">
   <rect x="36.79625" y="25.5" width="422.81625" height="288.041016"/>
  </clipPath>
 </defs>
</svg>
