<?xml version="1.0" encoding="UTF-8" standalone="no"?>
<!DOCTYPE svg PUBLIC "-//W3C//DTD SVG 1.1//EN"
 "http://www.w3.org/Graphics/SVG/1.1/DTD/svg11.dtd">
<!-- Generated by graphviz version 14.1.5 (20260411.2331)
 -->
<!-- Pages: 1 -->
<svg width="600pt" height="259pt"
 viewBox="0.00 0.00 600.00 259.00" xmlns="http://www.w3.org/2000/svg" xmlns:xlink="http://www.w3.org/1999/xlink">
<g id="graph0" class="graph" transform="scale(1 1) rotate(0) translate(4 255.37)">
<polygon fill="white" stroke="none" points="-4,4 -4,-255.37 595.94,-255.37 595.94,4 -4,4"/>
<text xml:space="preserve" text-anchor="middle" x="295.97" y="-230.27" font-family="Times New Roman,serif" font-size="18.00">Self&#45;organizing deep learning polynomial neural network</text>
<text xml:space="preserve" text-anchor="middle" x="295.97" y="-209.27" font-family="Times New Roman,serif" font-size="18.00"> </text>
<!-- OUTPUT -->
<g id="node1" class="node">
<title>OUTPUT</title>
<ellipse fill="#ff9c34" stroke="#f89939" cx="240" cy="-18" rx="41.18" ry="18"/>
<text xml:space="preserve" text-anchor="middle" x="240" y="-13.72" font-family="Times New Roman,serif" font-size="12.00" fill="white">OUTPUT</text>
</g>
<!-- F0
sepal length (cm) -->
<g id="node2" class="node">
<title>F0
sepal length (cm)</title>
<ellipse fill="#ff9c34" stroke="#f89939" cx="221" cy="-175.56" rx="68.59" ry="25.81"/>
<text xml:space="preserve" text-anchor="middle" x="221" y="-178.41" font-family="Times New Roman,serif" font-size="12.00" fill="white">F0</text>
<text xml:space="preserve" text-anchor="middle" x="221" y="-164.16" font-family="Times New Roman,serif" font-size="12.00" fill="white">sepal length (cm)</text>
</g>
<!-- layer 0
neuron 0
LinearCov -->
<g id="node6" class="node">
<title>layer 0
neuron 0
LinearCov</title>
<polygon fill="#cde8ef" stroke="#cde8ef" points="269.75,-113.75 210.25,-113.75 210.25,-72 269.75,-72 269.75,-113.75"/>
<text xml:space="preserve" text-anchor="middle" x="240" y="-100.25" font-family="Times New Roman,serif" font-size="10.00">layer 0</text>
<text xml:space="preserve" text-anchor="middle" x="240" y="-89" font-family="Times New Roman,serif" font-size="10.00">neuron 0</text>
<text xml:space="preserve" text-anchor="middle" x="240" y="-77.75" font-family="Times New Roman,serif" font-size="10.00">LinearCov</text>
</g>
<!-- F0
sepal length (cm)&#45;&gt;layer 0
neuron 0
LinearCov -->
<g id="edge1" class="edge">
<title>F0
sepal length (cm)&#45;&gt;layer 0
neuron 0
LinearCov</title>
<path fill="none" stroke="#cde8ef" d="M226.91,-149.47C228.73,-141.74 230.76,-133.13 232.66,-125.03"/>
<polygon fill="#3499cd" stroke="#cde8ef" points="236.01,-126.1 234.89,-115.56 229.19,-124.49 236.01,-126.1"/>
</g>
<!-- layer 0
neuron 1
LinearCov -->
<g id="node7" class="node">
<title>layer 0
neuron 1
LinearCov</title>
<polygon fill="#cde8ef" stroke="#cde8ef" points="153.75,-113.75 94.25,-113.75 94.25,-72 153.75,-72 153.75,-113.75"/>
<text xml:space="preserve" text-anchor="middle" x="124" y="-100.25" font-family="Times New Roman,serif" font-size="10.00">layer 0</text>
<text xml:space="preserve" text-anchor="middle" x="124" y="-89" font-family="Times New Roman,serif" font-size="10.00">neuron 1</text>
<text xml:space="preserve" text-anchor="middle" x="124" y="-77.75" font-family="Times New Roman,serif" font-size="10.00">LinearCov</text>
</g>
<!-- F0
sepal length (cm)&#45;&gt;layer 0
neuron 1
LinearCov -->
<g id="edge3" class="edge">
<title>F0
sepal length (cm)&#45;&gt;layer 0
neuron 1
LinearCov</title>
<path fill="none" stroke="#cde8ef" d="M193.46,-151.65C182.12,-142.22 168.9,-131.22 157.04,-121.36"/>
<polygon fill="#3499cd" stroke="#cde8ef" points="159.39,-118.76 149.46,-115.06 154.91,-124.14 159.39,-118.76"/>
</g>
<!-- layer 0
neuron 3
LinearCov -->
<g id="node9" class="node">
<title>layer 0
neuron 3
LinearCov</title>
<polygon fill="#cde8ef" stroke="#cde8ef" points="421.75,-113.75 362.25,-113.75 362.25,-72 421.75,-72 421.75,-113.75"/>
<text xml:space="preserve" text-anchor="middle" x="392" y="-100.25" font-family="Times New Roman,serif" font-size="10.00">layer 0</text>
<text xml:space="preserve" text-anchor="middle" x="392" y="-89" font-family="Times New Roman,serif" font-size="10.00">neuron 3</text>
<text xml:space="preserve" text-anchor="middle" x="392" y="-77.75" font-family="Times New Roman,serif" font-size="10.00">LinearCov</text>
</g>
<!-- F0
sepal length (cm)&#45;&gt;layer 0
neuron 3
LinearCov -->
<g id="edge7" class="edge">
<title>F0
sepal length (cm)&#45;&gt;layer 0
neuron 3
LinearCov</title>
<path fill="none" stroke="#cde8ef" d="M262.83,-154.82C289.89,-142.05 324.93,-125.52 351.68,-112.9"/>
<polygon fill="#3499cd" stroke="#cde8ef" points="352.94,-116.17 360.49,-108.74 349.95,-109.84 352.94,-116.17"/>
</g>
<!-- F1
sepal width (cm) -->
<g id="node3" class="node">
<title>F1
sepal width (cm)</title>
<ellipse fill="#ff9c34" stroke="#f89939" cx="67" cy="-175.56" rx="67" ry="25.81"/>
<text xml:space="preserve" text-anchor="middle" x="67" y="-178.41" font-family="Times New Roman,serif" font-size="12.00" fill="white">F1</text>
<text xml:space="preserve" text-anchor="middle" x="67" y="-164.16" font-family="Times New Roman,serif" font-size="12.00" fill="white">sepal width (cm)</text>
</g>
<!-- F1
sepal width (cm)&#45;&gt;layer 0
neuron 1
LinearCov -->
<g id="edge4" class="edge">
<title>F1
sepal width (cm)&#45;&gt;layer 0
neuron 1
LinearCov</title>
<path fill="none" stroke="#cde8ef" d="M84.1,-150.35C90.12,-141.83 96.95,-132.16 103.24,-123.26"/>
<polygon fill="#3499cd" stroke="#cde8ef" points="106,-125.41 108.91,-115.23 100.29,-121.37 106,-125.41"/>
</g>
<!-- F2
petal length (cm) -->
<g id="node4" class="node">
<title>F2
petal length (cm)</title>
<ellipse fill="#ff9c34" stroke="#f89939" cx="375" cy="-175.56" rx="67.53" ry="25.81"/>
<text xml:space="preserve" text-anchor="middle" x="375" y="-178.41" font-family="Times New Roman,serif" font-size="12.00" fill="white">F2</text>
<text xml:space="preserve" text-anchor="middle" x="375" y="-164.16" font-family="Times New Roman,serif" font-size="12.00" fill="white">petal length (cm)</text>
</g>
<!-- F2
petal length (cm)&#45;&gt;layer 0
neuron 0
LinearCov -->
<g id="edge2" class="edge">
<title>F2
petal length (cm)&#45;&gt;layer 0
neuron 0
LinearCov</title>
<path fill="none" stroke="#cde8ef" d="M339.53,-153.36C321.25,-142.44 298.9,-129.08 280.01,-117.79"/>
<polygon fill="#3499cd" stroke="#cde8ef" points="281.88,-114.83 271.5,-112.7 278.29,-120.84 281.88,-114.83"/>
</g>
<!-- layer 0
neuron 2
LinearCov -->
<g id="node8" class="node">
<title>layer 0
neuron 2
LinearCov</title>
<polygon fill="#cde8ef" stroke="#cde8ef" points="536.75,-113.75 477.25,-113.75 477.25,-72 536.75,-72 536.75,-113.75"/>
<text xml:space="preserve" text-anchor="middle" x="507" y="-100.25" font-family="Times New Roman,serif" font-size="10.00">layer 0</text>
<text xml:space="preserve" text-anchor="middle" x="507" y="-89" font-family="Times New Roman,serif" font-size="10.00">neuron 2</text>
<text xml:space="preserve" text-anchor="middle" x="507" y="-77.75" font-family="Times New Roman,serif" font-size="10.00">LinearCov</text>
</g>
<!-- F2
petal length (cm)&#45;&gt;layer 0
neuron 2
LinearCov -->
<g id="edge5" class="edge">
<title>F2
petal length (cm)&#45;&gt;layer 0
neuron 2
LinearCov</title>
<path fill="none" stroke="#cde8ef" d="M410.03,-153.15C427.68,-142.36 449.17,-129.22 467.42,-118.07"/>
<polygon fill="#3499cd" stroke="#cde8ef" points="469.19,-121.09 475.89,-112.89 465.53,-115.12 469.19,-121.09"/>
</g>
<!-- F3
petal width (cm) -->
<g id="node5" class="node">
<title>F3
petal width (cm)</title>
<ellipse fill="#ff9c34" stroke="#f89939" cx="526" cy="-175.56" rx="65.94" ry="25.81"/>
<text xml:space="preserve" text-anchor="middle" x="526" y="-178.41" font-family="Times New Roman,serif" font-size="12.00" fill="white">F3</text>
<text xml:space="preserve" text-anchor="middle" x="526" y="-164.16" font-family="Times New Roman,serif" font-size="12.00" fill="white">petal width (cm)</text>
</g>
<!-- F3
petal width (cm)&#45;&gt;layer 0
neuron 2
LinearCov -->
<g id="edge6" class="edge">
<title>F3
petal width (cm)&#45;&gt;layer 0
neuron 2
LinearCov</title>
<path fill="none" stroke="#cde8ef" d="M520.09,-149.47C518.27,-141.74 516.24,-133.13 514.34,-125.03"/>
<polygon fill="#3499cd" stroke="#cde8ef" points="517.8,-124.49 512.1,-115.56 510.99,-126.1 517.8,-124.49"/>
</g>
<!-- F3
petal width (cm)&#45;&gt;layer 0
neuron 3
LinearCov -->
<g id="edge8" class="edge">
<title>F3
petal width (cm)&#45;&gt;layer 0
neuron 3
LinearCov</title>
<path fill="none" stroke="#cde8ef" d="M490.79,-153.36C472.65,-142.44 450.46,-129.08 431.71,-117.79"/>
<polygon fill="#3499cd" stroke="#cde8ef" points="433.65,-114.87 423.27,-112.71 430.03,-120.86 433.65,-114.87"/>
</g>
<!-- layer 0
neuron 0
LinearCov&#45;&gt;OUTPUT -->
<g id="edge9" class="edge">
<title>layer 0
neuron 0
LinearCov&#45;&gt;OUTPUT</title>
<path fill="none" stroke="#cde8ef" d="M240,-71.58C240,-64.19 240,-55.7 240,-47.73"/>
<polygon fill="#3499cd" stroke="#cde8ef" points="243.5,-47.74 240,-37.74 236.5,-47.74 243.5,-47.74"/>
</g>
</g>
</svg>
